<?xml version="1.0" encoding="utf-8"?>
<!-- Generator: Adobe Illustrator 22.0.0, SVG Export Plug-In . SVG Version: 6.00 Build 0)  -->
<svg version="1.1" id="图层_1" xmlns="http://www.w3.org/2000/svg" xmlns:xlink="http://www.w3.org/1999/xlink" x="0px" y="0px"
	 viewBox="0 0 67.8 87" style="enable-background:new 0 0 67.8 87;" xml:space="preserve">
<style type="text/css">
	.st0{fill:#FFFFFF;}
	.st1{fill:#2C2C2C;}
	.st2{fill:#9769FF;}
	.st3{fill:none;}
</style>
<g>
	<path class="st0" d="M103.4-21.1c-12.2-12.2-31.9-12.2-44.1,0c-12.2-12.2-31.9-12.2-44.1,0s-12.2,31.9,0,44.1l40.3,40.3
		c2.1,2.1,5.4,2.1,7.5,0l40.3-40.3C115.6,10.8,115.6-9,103.4-21.1L103.4-21.1z M103.4-21.1"/>
	<path class="st0" d="M90-26.2c15.4,10.1,17.6,32.1-10.1,57.6C67,43.1,55.6,63.3,55.6,63.3c2.1,2.1,5.4,2.1,7.5,0L103.4,23
		C115.6,10.8,112.1-20.4,90-26.2L90-26.2z M90-26.2"/>
	<path class="st0" d="M58.1-18.8C45.9-31.1,26.2-34.5,14-22.3c-12.1,12.1-10.4,36,5.6,45.9c0.5,0.3-10.9-24.4,2.3-37.8
		C32.9-25.4,49.6-22.7,58.1-18.8L58.1-18.8z M58.1-18.8"/>
	<path class="st1" d="M59.3,68.1c-2.2,0-4.4-0.9-6-2.5L12.9,25.3c-13.4-13.4-13.4-35.2,0-48.6C25.6-36,45.8-36.6,59.3-25.4
		C72.8-36.7,93-36,105.7-23.3c6.5,6.5,10.1,15.1,10.1,24.3c0,9.2-3.6,17.8-10.1,24.3L65.4,65.6C63.7,67.2,61.5,68.1,59.3,68.1
		L59.3,68.1z M37.3-27.1c-7.2,0-14.4,2.7-19.8,8.2C12.2-13.6,9.3-6.6,9.3,0.9c0,7.5,3,14.5,8.2,19.8l40.3,40.3c0.8,0.8,2.2,0.8,3,0
		l40.3-40.3c5.3-5.3,8.2-12.4,8.2-19.8c0-7.5-2.9-14.5-8.1-19.8c-10.9-10.9-28.7-10.9-39.6,0c-1.3,1.3-3.3,1.3-4.5,0
		C51.8-24.1,44.7-27.1,37.3-27.1L37.3-27.1z M37.3-27.1"/>
	<path class="st2" d="M82.1,14.4C66.7-1,41.9-1,26.5,14.4C11.1-1-13.7-1-29.1,14.4c-15.4,15.4-15.4,40.2,0,55.6l50.8,50.8
		c2.6,2.6,6.9,2.6,9.5,0l50.8-50.8C97.5,54.7,97.5,29.8,82.1,14.4L82.1,14.4z"/>
	<path class="st2" d="M82.1,14.4"/>
	<path class="st2" d="M65.1,8.1c19.4,12.7,22.3,40.5-12.8,72.6c-16.1,14.8-30.7,40.2-30.7,40.2c2.6,2.6,6.9,2.6,9.5,0L82.1,70
		C97.5,54.7,93.1,15.3,65.1,8.1L65.1,8.1z M65.1,8.1"/>
	<path class="st0" d="M24.9,16.2C9.5,0.8-15.3-2.6-30.7,12.8c-15.3,15.3-13.1,45.3,7,57.9c0.6,0.4-13.8-30.8,2.9-47.7
		C-6.9,9,14.2,11.4,24.9,16.2L24.9,16.2z M24.9,16.2"/>
	<path class="st1" d="M26.4,126.1c-2.6,0-5.1-1-7-2.9l-50.8-50.8c-8-8.1-12.5-18.8-12.5-30.2c0-11.3,4.5-22,12.5-30.1
		C-23.4,4.1-12.7-0.3-1.4-0.3C8.9-0.3,18.8,3.3,26.5,10C34.2,3.3,44-0.3,54.4-0.3c11.3,0,22,4.5,30.1,12.5c8,8,12.5,18.7,12.5,30.1
		c0,11.3-4.5,22-12.5,30.1l-50.8,50.8C31.6,125.1,29.1,126.1,26.4,126.1L26.4,126.1z M-1.4,6.1c-9.7,0-18.8,3.8-25.5,10.6
		c-6.9,6.9-10.6,15.9-10.6,25.5c0,9.7,3.8,18.8,10.6,25.5l50.8,50.8c1.4,1.4,3.6,1.4,4.9,0l50.9-50.8c6.9-6.9,10.6-16,10.6-25.6
		c0-9.7-3.8-18.8-10.5-25.5C73,9.8,64,6.1,54.4,6.1S35.6,9.8,28.8,16.7c-0.6,0.6-1.4,1-2.2,1c-0.8,0-1.7-0.3-2.2-1
		C17.4,9.8,8.3,6.1-1.4,6.1L-1.4,6.1z M85.2,106.7c-1.4,0-2.4-1-2.4-2.4c0-1.4,1-2.4,2.4-2.4c4,0,7.2-3.2,7.2-7.2
		c0-1.4,1-2.4,2.4-2.4c1.4,0,2.4,1,2.4,2.4C97.2,101.3,91.9,106.7,85.2,106.7L85.2,106.7z M90,117.6c-1.4,0-2.4-1-2.4-2.4
		c0-1.4,1-2.4,2.4-2.4c7.3,0,13.3-6,13.3-13.3c0-1.4,1-2.4,2.4-2.4c1.4,0,2.4,1,2.4,2.4C108.1,109.4,100,117.6,90,117.6L90,117.6z
		 M-31.2-10c-1.4,0-2.4-1-2.4-2.4c0-6.6,5.3-12,12-12c1.4,0,2.4,1,2.4,2.4c0,1.4-1,2.4-2.4,2.4c-4,0-7.2,3.2-7.2,7.2
		C-28.8-11-29.9-10-31.2-10L-31.2-10z M-42.1-13.2c-1.4,0-2.4-1-2.4-2.4c0-10,8.1-18,18-18c1.4,0,2.4,1,2.4,2.4c0,1.4-1,2.4-2.4,2.4
		c-7.3,0-13.3,6-13.3,13.3C-39.7-14.2-40.7-13.2-42.1-13.2L-42.1-13.2z M-42.1-13.2"/>
	<rect x="-44.4" y="-33.7" class="st3" width="160.2" height="160"/>
</g>
</svg>
